<?xml version="1.0" encoding="utf-8" standalone="no"?>
<!DOCTYPE svg PUBLIC "-//W3C//DTD SVG 1.1//EN"
  "http://www.w3.org/Graphics/SVG/1.1/DTD/svg11.dtd">
<!-- Created with matplotlib (https://matplotlib.org/) -->
<svg height="345.6pt" version="1.1" viewBox="0 0 460.8 345.6" width="460.8pt" xmlns="http://www.w3.org/2000/svg" xmlns:xlink="http://www.w3.org/1999/xlink">
 <defs>
  <style type="text/css">
*{stroke-linecap:butt;stroke-linejoin:round;}
  </style>
 </defs>
 <g id="figure_1">
  <g id="patch_1">
   <path d="M 0 345.6 
L 460.8 345.6 
L 460.8 0 
L 0 0 
z
" style="fill:#ffffff;"/>
  </g>
  <g id="axes_1">
   <g id="patch_2">
    <path d="M 57.6 307.584 
L 414.72 307.584 
L 414.72 41.472 
L 57.6 41.472 
z
" style="fill:#ffffff;"/>
   </g>
   <g id="PathCollection_1">
    <defs>
     <path d="M 0 2.236068 
C 0.593012 2.236068 1.161816 2.000462 1.581139 1.581139 
C 2.000462 1.161816 2.236068 0.593012 2.236068 0 
C 2.236068 -0.593012 2.000462 -1.161816 1.581139 -1.581139 
C 1.161816 -2.000462 0.593012 -2.236068 0 -2.236068 
C -0.593012 -2.236068 -1.161816 -2.000462 -1.581139 -1.581139 
C -2.000462 -1.161816 -2.236068 -0.593012 -2.236068 0 
C -2.236068 0.593012 -2.000462 1.161816 -1.581139 1.581139 
C -1.161816 2.000462 -0.593012 2.236068 0 2.236068 
z
" id="mdc22e74a38" style="stroke:#1f77b4;"/>
    </defs>
    <g clip-path="url(#pe82f7b6835)">
     <use style="fill:#1f77b4;stroke:#1f77b4;" x="75.725616" xlink:href="#mdc22e74a38" y="201.794921"/>
     <use style="fill:#1f77b4;stroke:#1f77b4;" x="93.746104" xlink:href="#mdc22e74a38" y="93.605642"/>
     <use style="fill:#1f77b4;stroke:#1f77b4;" x="98.353267" xlink:href="#mdc22e74a38" y="122.906322"/>
     <use style="fill:#1f77b4;stroke:#1f77b4;" x="84.822595" xlink:href="#mdc22e74a38" y="255.66856"/>
     <use style="fill:#1f77b4;stroke:#1f77b4;" x="137.333032" xlink:href="#mdc22e74a38" y="97.27592"/>
     <use style="fill:#1f77b4;stroke:#1f77b4;" x="126.27686" xlink:href="#mdc22e74a38" y="95.720528"/>
     <use style="fill:#1f77b4;stroke:#1f77b4;" x="83.12871" xlink:href="#mdc22e74a38" y="108.745539"/>
     <use style="fill:#1f77b4;stroke:#1f77b4;" x="221.532384" xlink:href="#mdc22e74a38" y="61.546658"/>
     <use style="fill:#1f77b4;stroke:#1f77b4;" x="235.649794" xlink:href="#mdc22e74a38" y="70.498556"/>
     <use style="fill:#1f77b4;stroke:#1f77b4;" x="85.266474" xlink:href="#mdc22e74a38" y="134.722827"/>
     <use style="fill:#1f77b4;stroke:#1f77b4;" x="188.302645" xlink:href="#mdc22e74a38" y="103.844375"/>
     <use style="fill:#1f77b4;stroke:#1f77b4;" x="184.664874" xlink:href="#mdc22e74a38" y="91.943946"/>
     <use style="fill:#1f77b4;stroke:#1f77b4;" x="77.827666" xlink:href="#mdc22e74a38" y="143.350219"/>
     <use style="fill:#1f77b4;stroke:#1f77b4;" x="148.782062" xlink:href="#mdc22e74a38" y="99.659363"/>
     <use style="fill:#1f77b4;stroke:#1f77b4;" x="102.628796" xlink:href="#mdc22e74a38" y="122.755259"/>
     <use style="fill:#1f77b4;stroke:#1f77b4;" x="225.098727" xlink:href="#mdc22e74a38" y="72.848429"/>
     <use style="fill:#1f77b4;stroke:#1f77b4;" x="105.735953" xlink:href="#mdc22e74a38" y="114.726526"/>
     <use style="fill:#1f77b4;stroke:#1f77b4;" x="79.011345" xlink:href="#mdc22e74a38" y="199.568136"/>
     <use style="fill:#1f77b4;stroke:#1f77b4;" x="87.251177" xlink:href="#mdc22e74a38" y="171.336089"/>
     <use style="fill:#1f77b4;stroke:#1f77b4;" x="89.659351" xlink:href="#mdc22e74a38" y="156.302496"/>
     <use style="fill:#1f77b4;stroke:#1f77b4;" x="101.593077" xlink:href="#mdc22e74a38" y="89.789896"/>
     <use style="fill:#1f77b4;stroke:#1f77b4;" x="123.909503" xlink:href="#mdc22e74a38" y="225.830766"/>
     <use style="fill:#1f77b4;stroke:#1f77b4;" x="113.445171" xlink:href="#mdc22e74a38" y="115.644095"/>
     <use style="fill:#1f77b4;stroke:#1f77b4;" x="317.344033" xlink:href="#mdc22e74a38" y="83.943188"/>
     <use style="fill:#1f77b4;stroke:#1f77b4;" x="107.5829" xlink:href="#mdc22e74a38" y="108.208425"/>
     <use style="fill:#1f77b4;stroke:#1f77b4;" x="77.450113" xlink:href="#mdc22e74a38" y="225.707678"/>
     <use style="fill:#1f77b4;stroke:#1f77b4;" x="74.603162" xlink:href="#mdc22e74a38" y="238.788638"/>
     <use style="fill:#1f77b4;stroke:#1f77b4;" x="77.353174" xlink:href="#mdc22e74a38" y="161.696014"/>
     <use style="fill:#1f77b4;stroke:#1f77b4;" x="81.541968" xlink:href="#mdc22e74a38" y="218.03702"/>
     <use style="fill:#1f77b4;stroke:#1f77b4;" x="237.894702" xlink:href="#mdc22e74a38" y="64.456025"/>
     <use style="fill:#1f77b4;stroke:#1f77b4;" x="84.031775" xlink:href="#mdc22e74a38" y="118.027538"/>
     <use style="fill:#1f77b4;stroke:#1f77b4;" x="76.23072" xlink:href="#mdc22e74a38" y="264.100129"/>
     <use style="fill:#1f77b4;stroke:#1f77b4;" x="77.531746" xlink:href="#mdc22e74a38" y="247.421625"/>
     <use style="fill:#1f77b4;stroke:#1f77b4;" x="125.58298" xlink:href="#mdc22e74a38" y="77.883872"/>
     <use style="fill:#1f77b4;stroke:#1f77b4;" x="89.725678" xlink:href="#mdc22e74a38" y="105.220729"/>
     <use style="fill:#1f77b4;stroke:#1f77b4;" x="101.67471" xlink:href="#mdc22e74a38" y="111.363969"/>
     <use style="fill:#1f77b4;stroke:#1f77b4;" x="77.904197" xlink:href="#mdc22e74a38" y="184.8031"/>
     <use style="fill:#1f77b4;stroke:#1f77b4;" x="73.83275" xlink:href="#mdc22e74a38" y="249.217599"/>
     <use style="fill:#1f77b4;stroke:#1f77b4;" x="89.807311" xlink:href="#mdc22e74a38" y="215.989274"/>
     <use style="fill:#1f77b4;stroke:#1f77b4;" x="111.485978" xlink:href="#mdc22e74a38" y="73.905872"/>
     <use style="fill:#1f77b4;stroke:#1f77b4;" x="81.25115" xlink:href="#mdc22e74a38" y="248.982612"/>
     <use style="fill:#1f77b4;stroke:#1f77b4;" x="126.332983" xlink:href="#mdc22e74a38" y="90.25987"/>
     <use style="fill:#1f77b4;stroke:#1f77b4;" x="103.542066" xlink:href="#mdc22e74a38" y="79.707821"/>
     <use style="fill:#1f77b4;stroke:#1f77b4;" x="188.777137" xlink:href="#mdc22e74a38" y="72.283341"/>
     <use style="fill:#1f77b4;stroke:#1f77b4;" x="158.174961" xlink:href="#mdc22e74a38" y="88.849946"/>
     <use style="fill:#1f77b4;stroke:#1f77b4;" x="234.614075" xlink:href="#mdc22e74a38" y="78.499315"/>
     <use style="fill:#1f77b4;stroke:#1f77b4;" x="82.006256" xlink:href="#mdc22e74a38" y="189.709859"/>
     <use style="fill:#1f77b4;stroke:#1f77b4;" x="94.536924" xlink:href="#mdc22e74a38" y="114.010374"/>
     <use style="fill:#1f77b4;stroke:#1f77b4;" x="100.996136" xlink:href="#mdc22e74a38" y="98.344553"/>
     <use style="fill:#1f77b4;stroke:#1f77b4;" x="95.960399" xlink:href="#mdc22e74a38" y="124.758246"/>
     <use style="fill:#1f77b4;stroke:#1f77b4;" x="99.593068" xlink:href="#mdc22e74a38" y="118.69893"/>
     <use style="fill:#1f77b4;stroke:#1f77b4;" x="99.07776" xlink:href="#mdc22e74a38" y="241.742765"/>
     <use style="fill:#1f77b4;stroke:#1f77b4;" x="76.123577" xlink:href="#mdc22e74a38" y="194.700542"/>
     <use style="fill:#1f77b4;stroke:#1f77b4;" x="129.710549" xlink:href="#mdc22e74a38" y="112.628425"/>
     <use style="fill:#1f77b4;stroke:#1f77b4;" x="74.955204" xlink:href="#mdc22e74a38" y="216.442464"/>
     <use style="fill:#1f77b4;stroke:#1f77b4;" x="92.016504" xlink:href="#mdc22e74a38" y="130.795182"/>
     <use style="fill:#1f77b4;stroke:#1f77b4;" x="210.971113" xlink:href="#mdc22e74a38" y="73.68767"/>
     <use style="fill:#1f77b4;stroke:#1f77b4;" x="218.445636" xlink:href="#mdc22e74a38" y="65.463114"/>
     <use style="fill:#1f77b4;stroke:#1f77b4;" x="137.465685" xlink:href="#mdc22e74a38" y="174.486038"/>
     <use style="fill:#1f77b4;stroke:#1f77b4;" x="75.848065" xlink:href="#mdc22e74a38" y="200.384997"/>
     <use style="fill:#1f77b4;stroke:#1f77b4;" x="84.24096" xlink:href="#mdc22e74a38" y="106.815286"/>
     <use style="fill:#1f77b4;stroke:#1f77b4;" x="224.006885" xlink:href="#mdc22e74a38" y="71.554463"/>
     <use style="fill:#1f77b4;stroke:#1f77b4;" x="77.786849" xlink:href="#mdc22e74a38" y="189.860922"/>
     <use style="fill:#1f77b4;stroke:#1f77b4;" x="177.828109" xlink:href="#mdc22e74a38" y="69.351594"/>
     <use style="fill:#1f77b4;stroke:#1f77b4;" x="241.751862" xlink:href="#mdc22e74a38" y="133.721334"/>
     <use style="fill:#1f77b4;stroke:#1f77b4;" x="116.501307" xlink:href="#mdc22e74a38" y="115.1965"/>
     <use style="fill:#1f77b4;stroke:#1f77b4;" x="97.261425" xlink:href="#mdc22e74a38" y="129.592271"/>
     <use style="fill:#1f77b4;stroke:#1f77b4;" x="76.965417" xlink:href="#mdc22e74a38" y="221.97026"/>
     <use style="fill:#1f77b4;stroke:#1f77b4;" x="75.567452" xlink:href="#mdc22e74a38" y="220.789729"/>
     <use style="fill:#1f77b4;stroke:#1f77b4;" x="88.368529" xlink:href="#mdc22e74a38" y="154.646395"/>
     <use style="fill:#1f77b4;stroke:#1f77b4;" x="79.200121" xlink:href="#mdc22e74a38" y="187.264872"/>
     <use style="fill:#1f77b4;stroke:#1f77b4;" x="88.12363" xlink:href="#mdc22e74a38" y="114.407614"/>
     <use style="fill:#1f77b4;stroke:#1f77b4;" x="225.261993" xlink:href="#mdc22e74a38" y="59.135241"/>
     <use style="fill:#1f77b4;stroke:#1f77b4;" x="141.690194" xlink:href="#mdc22e74a38" y="106.697793"/>
     <use style="fill:#1f77b4;stroke:#1f77b4;" x="230.976304" xlink:href="#mdc22e74a38" y="62.721595"/>
     <use style="fill:#1f77b4;stroke:#1f77b4;" x="80.751148" xlink:href="#mdc22e74a38" y="161.142115"/>
     <use style="fill:#1f77b4;stroke:#1f77b4;" x="86.189948" xlink:href="#mdc22e74a38" y="132.272245"/>
     <use style="fill:#1f77b4;stroke:#1f77b4;" x="116.220693" xlink:href="#mdc22e74a38" y="119.280804"/>
     <use style="fill:#1f77b4;stroke:#1f77b4;" x="92.5012" xlink:href="#mdc22e74a38" y="112.376653"/>
     <use style="fill:#1f77b4;stroke:#1f77b4;" x="229.624257" xlink:href="#mdc22e74a38" y="79.842099"/>
     <use style="fill:#1f77b4;stroke:#1f77b4;" x="188.843464" xlink:href="#mdc22e74a38" y="68.148683"/>
     <use style="fill:#1f77b4;stroke:#1f77b4;" x="210.91499" xlink:href="#mdc22e74a38" y="62.665646"/>
     <use style="fill:#1f77b4;stroke:#1f77b4;" x="107.720656" xlink:href="#mdc22e74a38" y="114.424399"/>
     <use style="fill:#1f77b4;stroke:#1f77b4;" x="218.052777" xlink:href="#mdc22e74a38" y="53.601849"/>
     <use style="fill:#1f77b4;stroke:#1f77b4;" x="91.036908" xlink:href="#mdc22e74a38" y="107.458704"/>
     <use style="fill:#1f77b4;stroke:#1f77b4;" x="99.72062" xlink:href="#mdc22e74a38" y="153.398724"/>
     <use style="fill:#1f77b4;stroke:#1f77b4;" x="79.067467" xlink:href="#mdc22e74a38" y="212.979198"/>
     <use style="fill:#1f77b4;stroke:#1f77b4;" x="90.205272" xlink:href="#mdc22e74a38" y="147.082041"/>
     <use style="fill:#1f77b4;stroke:#1f77b4;" x="80.960333" xlink:href="#mdc22e74a38" y="143.562826"/>
     <use style="fill:#1f77b4;stroke:#1f77b4;" x="159.052516" xlink:href="#mdc22e74a38" y="82.896934"/>
     <use style="fill:#1f77b4;stroke:#1f77b4;" x="258.04275" xlink:href="#mdc22e74a38" y="99.575439"/>
     <use style="fill:#1f77b4;stroke:#1f77b4;" x="80.133799" xlink:href="#mdc22e74a38" y="138.186093"/>
     <use style="fill:#1f77b4;stroke:#1f77b4;" x="80.08788" xlink:href="#mdc22e74a38" y="163.603887"/>
     <use style="fill:#1f77b4;stroke:#1f77b4;" x="116.470694" xlink:href="#mdc22e74a38" y="116.209184"/>
     <use style="fill:#1f77b4;stroke:#1f77b4;" x="101.909405" xlink:href="#mdc22e74a38" y="92.4363"/>
     <use style="fill:#1f77b4;stroke:#1f77b4;" x="78.393995" xlink:href="#mdc22e74a38" y="244.305245"/>
     <use style="fill:#1f77b4;stroke:#1f77b4;" x="74.990919" xlink:href="#mdc22e74a38" y="215.44097"/>
     <use style="fill:#1f77b4;stroke:#1f77b4;" x="118.970705" xlink:href="#mdc22e74a38" y="106.630653"/>
     <use style="fill:#1f77b4;stroke:#1f77b4;" x="121.480921" xlink:href="#mdc22e74a38" y="104.907413"/>
     <use style="fill:#1f77b4;stroke:#1f77b4;" x="398.48725" xlink:href="#mdc22e74a38" y="73.351974"/>
     <use style="fill:#1f77b4;stroke:#1f77b4;" x="187.200599" xlink:href="#mdc22e74a38" y="74.431796"/>
     <use style="fill:#1f77b4;stroke:#1f77b4;" x="107.92984" xlink:href="#mdc22e74a38" y="98.954401"/>
     <use style="fill:#1f77b4;stroke:#1f77b4;" x="77.582767" xlink:href="#mdc22e74a38" y="181.530062"/>
     <use style="fill:#1f77b4;stroke:#1f77b4;" x="75.980719" xlink:href="#mdc22e74a38" y="251.159042"/>
     <use style="fill:#1f77b4;stroke:#1f77b4;" x="124.185014" xlink:href="#mdc22e74a38" y="101.382603"/>
     <use style="fill:#1f77b4;stroke:#1f77b4;" x="89.858331" xlink:href="#mdc22e74a38" y="121.138323"/>
     <use style="fill:#1f77b4;stroke:#1f77b4;" x="76.70011" xlink:href="#mdc22e74a38" y="234.25674"/>
     <use style="fill:#1f77b4;stroke:#1f77b4;" x="175.792386" xlink:href="#mdc22e74a38" y="75.903264"/>
     <use style="fill:#1f77b4;stroke:#1f77b4;" x="80.200125" xlink:href="#mdc22e74a38" y="174.569962"/>
     <use style="fill:#1f77b4;stroke:#1f77b4;" x="114.639053" xlink:href="#mdc22e74a38" y="110.37926"/>
     <use style="fill:#1f77b4;stroke:#1f77b4;" x="127.924827" xlink:href="#mdc22e74a38" y="92.598554"/>
     <use style="fill:#1f77b4;stroke:#1f77b4;" x="100.557358" xlink:href="#mdc22e74a38" y="132.210701"/>
     <use style="fill:#1f77b4;stroke:#1f77b4;" x="80.975639" xlink:href="#mdc22e74a38" y="133.850017"/>
     <use style="fill:#1f77b4;stroke:#1f77b4;" x="82.63381" xlink:href="#mdc22e74a38" y="156.962698"/>
     <use style="fill:#1f77b4;stroke:#1f77b4;" x="103.89921" xlink:href="#mdc22e74a38" y="94.025262"/>
     <use style="fill:#1f77b4;stroke:#1f77b4;" x="88.021589" xlink:href="#mdc22e74a38" y="127.06336"/>
     <use style="fill:#1f77b4;stroke:#1f77b4;" x="75.108266" xlink:href="#mdc22e74a38" y="243.147093"/>
     <use style="fill:#1f77b4;stroke:#1f77b4;" x="77.618481" xlink:href="#mdc22e74a38" y="161.455432"/>
     <use style="fill:#1f77b4;stroke:#1f77b4;" x="92.863447" xlink:href="#mdc22e74a38" y="200.060491"/>
     <use style="fill:#1f77b4;stroke:#1f77b4;" x="77.720523" xlink:href="#mdc22e74a38" y="161.556141"/>
     <use style="fill:#1f77b4;stroke:#1f77b4;" x="240.711041" xlink:href="#mdc22e74a38" y="71.0021"/>
     <use style="fill:#1f77b4;stroke:#1f77b4;" x="184.052626" xlink:href="#mdc22e74a38" y="67.309443"/>
     <use style="fill:#1f77b4;stroke:#1f77b4;" x="85.047086" xlink:href="#mdc22e74a38" y="118.883563"/>
     <use style="fill:#1f77b4;stroke:#1f77b4;" x="75.286838" xlink:href="#mdc22e74a38" y="225.131399"/>
     <use style="fill:#1f77b4;stroke:#1f77b4;" x="80.603188" xlink:href="#mdc22e74a38" y="247.863625"/>
     <use style="fill:#1f77b4;stroke:#1f77b4;" x="292.619434" xlink:href="#mdc22e74a38" y="68.092734"/>
     <use style="fill:#1f77b4;stroke:#1f77b4;" x="170.322974" xlink:href="#mdc22e74a38" y="105.136805"/>
     <use style="fill:#1f77b4;stroke:#1f77b4;" x="82.985852" xlink:href="#mdc22e74a38" y="151.490851"/>
     <use style="fill:#1f77b4;stroke:#1f77b4;" x="110.123727" xlink:href="#mdc22e74a38" y="88.603769"/>
     <use style="fill:#1f77b4;stroke:#1f77b4;" x="81.633805" xlink:href="#mdc22e74a38" y="180.052999"/>
     <use style="fill:#1f77b4;stroke:#1f77b4;" x="92.27671" xlink:href="#mdc22e74a38" y="116.695943"/>
     <use style="fill:#1f77b4;stroke:#1f77b4;" x="101.888997" xlink:href="#mdc22e74a38" y="114.273336"/>
     <use style="fill:#1f77b4;stroke:#1f77b4;" x="85.598109" xlink:href="#mdc22e74a38" y="135.153637"/>
     <use style="fill:#1f77b4;stroke:#1f77b4;" x="131.935048" xlink:href="#mdc22e74a38" y="95.228174"/>
     <use style="fill:#1f77b4;stroke:#1f77b4;" x="172.389309" xlink:href="#mdc22e74a38" y="78.835011"/>
     <use style="fill:#1f77b4;stroke:#1f77b4;" x="380.476966" xlink:href="#mdc22e74a38" y="79.730201"/>
     <use style="fill:#1f77b4;stroke:#1f77b4;" x="108.511475" xlink:href="#mdc22e74a38" y="114.474754"/>
     <use style="fill:#1f77b4;stroke:#1f77b4;" x="116.067631" xlink:href="#mdc22e74a38" y="142.952978"/>
     <use style="fill:#1f77b4;stroke:#1f77b4;" x="75.9348" xlink:href="#mdc22e74a38" y="242.193157"/>
     <use style="fill:#1f77b4;stroke:#1f77b4;" x="116.60845" xlink:href="#mdc22e74a38" y="108.958147"/>
     <use style="fill:#1f77b4;stroke:#1f77b4;" x="102.409407" xlink:href="#mdc22e74a38" y="113.747412"/>
     <use style="fill:#1f77b4;stroke:#1f77b4;" x="93.210387" xlink:href="#mdc22e74a38" y="120.774652"/>
     <use style="fill:#1f77b4;stroke:#1f77b4;" x="79.077671" xlink:href="#mdc22e74a38" y="154.389028"/>
     <use style="fill:#1f77b4;stroke:#1f77b4;" x="174.389318" xlink:href="#mdc22e74a38" y="103.670932"/>
     <use style="fill:#1f77b4;stroke:#1f77b4;" x="80.052166" xlink:href="#mdc22e74a38" y="185.26748"/>
     <use style="fill:#1f77b4;stroke:#1f77b4;" x="106.052281" xlink:href="#mdc22e74a38" y="105.511666"/>
     <use style="fill:#1f77b4;stroke:#1f77b4;" x="150.047374" xlink:href="#mdc22e74a38" y="107.195742"/>
     <use style="fill:#1f77b4;stroke:#1f77b4;" x="74.980715" xlink:href="#mdc22e74a38" y="295.454151"/>
     <use style="fill:#1f77b4;stroke:#1f77b4;" x="260.272352" xlink:href="#mdc22e74a38" y="70.442607"/>
     <use style="fill:#1f77b4;stroke:#1f77b4;" x="137.08303" xlink:href="#mdc22e74a38" y="99.256528"/>
     <use style="fill:#1f77b4;stroke:#1f77b4;" x="171.317876" xlink:href="#mdc22e74a38" y="82.919314"/>
     <use style="fill:#1f77b4;stroke:#1f77b4;" x="81.536866" xlink:href="#mdc22e74a38" y="157.343154"/>
     <use style="fill:#1f77b4;stroke:#1f77b4;" x="76.837866" xlink:href="#mdc22e74a38" y="223.956463"/>
     <use style="fill:#1f77b4;stroke:#1f77b4;" x="110.373728" xlink:href="#mdc22e74a38" y="196.037732"/>
     <use style="fill:#1f77b4;stroke:#1f77b4;" x="81.950133" xlink:href="#mdc22e74a38" y="233.210487"/>
     <use style="fill:#1f77b4;stroke:#1f77b4;" x="191.782252" xlink:href="#mdc22e74a38" y="64.847671"/>
     <use style="fill:#1f77b4;stroke:#1f77b4;" x="87.633832" xlink:href="#mdc22e74a38" y="111.073033"/>
     <use style="fill:#1f77b4;stroke:#1f77b4;" x="81.904215" xlink:href="#mdc22e74a38" y="184.3611"/>
     <use style="fill:#1f77b4;stroke:#1f77b4;" x="101.307362" xlink:href="#mdc22e74a38" y="129.127891"/>
     <use style="fill:#1f77b4;stroke:#1f77b4;" x="92.858345" xlink:href="#mdc22e74a38" y="236.338056"/>
     <use style="fill:#1f77b4;stroke:#1f77b4;" x="218.466044" xlink:href="#mdc22e74a38" y="62.050203"/>
     <use style="fill:#1f77b4;stroke:#1f77b4;" x="247.7825" xlink:href="#mdc22e74a38" y="61.210962"/>
     <use style="fill:#1f77b4;stroke:#1f77b4;" x="92.419567" xlink:href="#mdc22e74a38" y="98.551566"/>
     <use style="fill:#1f77b4;stroke:#1f77b4;" x="192.36899" xlink:href="#mdc22e74a38" y="83.422858"/>
     <use style="fill:#1f77b4;stroke:#1f77b4;" x="77.450113" xlink:href="#mdc22e74a38" y="153.079813"/>
     <use style="fill:#1f77b4;stroke:#1f77b4;" x="76.557252" xlink:href="#mdc22e74a38" y="228.947146"/>
     <use style="fill:#1f77b4;stroke:#1f77b4;" x="100.802258" xlink:href="#mdc22e74a38" y="111.951437"/>
     <use style="fill:#1f77b4;stroke:#1f77b4;" x="86.337908" xlink:href="#mdc22e74a38" y="176.03024"/>
     <use style="fill:#1f77b4;stroke:#1f77b4;" x="76.883784" xlink:href="#mdc22e74a38" y="208.945249"/>
     <use style="fill:#1f77b4;stroke:#1f77b4;" x="97.27163" xlink:href="#mdc22e74a38" y="112.572475"/>
     <use style="fill:#1f77b4;stroke:#1f77b4;" x="125.894205" xlink:href="#mdc22e74a38" y="125.312145"/>
     <use style="fill:#1f77b4;stroke:#1f77b4;" x="100.302255" xlink:href="#mdc22e74a38" y="99.429971"/>
     <use style="fill:#1f77b4;stroke:#1f77b4;" x="107.052285" xlink:href="#mdc22e74a38" y="117.048424"/>
     <use style="fill:#1f77b4;stroke:#1f77b4;" x="89.123634" xlink:href="#mdc22e74a38" y="151.09361"/>
     <use style="fill:#1f77b4;stroke:#1f77b4;" x="76.837866" xlink:href="#mdc22e74a38" y="239.488005"/>
     <use style="fill:#1f77b4;stroke:#1f77b4;" x="91.220582" xlink:href="#mdc22e74a38" y="129.469182"/>
     <use style="fill:#1f77b4;stroke:#1f77b4;" x="225.466075" xlink:href="#mdc22e74a38" y="93.812655"/>
     <use style="fill:#1f77b4;stroke:#1f77b4;" x="218.486452" xlink:href="#mdc22e74a38" y="72.121088"/>
     <use style="fill:#1f77b4;stroke:#1f77b4;" x="275.190785" xlink:href="#mdc22e74a38" y="79.058808"/>
     <use style="fill:#1f77b4;stroke:#1f77b4;" x="118.730908" xlink:href="#mdc22e74a38" y="90.377364"/>
     <use style="fill:#1f77b4;stroke:#1f77b4;" x="80.684821" xlink:href="#mdc22e74a38" y="133.894777"/>
     <use style="fill:#1f77b4;stroke:#1f77b4;" x="91.53691" xlink:href="#mdc22e74a38" y="131.4386"/>
     <use style="fill:#1f77b4;stroke:#1f77b4;" x="120.475814" xlink:href="#mdc22e74a38" y="103.497489"/>
     <use style="fill:#1f77b4;stroke:#1f77b4;" x="80.388902" xlink:href="#mdc22e74a38" y="95.9723"/>
     <use style="fill:#1f77b4;stroke:#1f77b4;" x="111.047201" xlink:href="#mdc22e74a38" y="111.906678"/>
     <use style="fill:#1f77b4;stroke:#1f77b4;" x="83.654222" xlink:href="#mdc22e74a38" y="170.79338"/>
     <use style="fill:#1f77b4;stroke:#1f77b4;" x="77.623583" xlink:href="#mdc22e74a38" y="274.870381"/>
     <use style="fill:#1f77b4;stroke:#1f77b4;" x="76.143985" xlink:href="#mdc22e74a38" y="262.70699"/>
    </g>
   </g>
   <g id="matplotlib.axis_1">
    <g id="xtick_1">
     <g id="line2d_1">
      <defs>
       <path d="M 0 0 
L 0 3.5 
" id="m91375d87fd" style="stroke:#000000;stroke-width:0.8;"/>
      </defs>
      <g>
       <use style="stroke:#000000;stroke-width:0.8;" x="72.342948" xlink:href="#m91375d87fd" y="307.584"/>
      </g>
     </g>
     <g id="text_1">
      <!-- 0 -->
      <defs>
       <path d="M 31.78125 66.40625 
Q 24.171875 66.40625 20.328125 58.90625 
Q 16.5 51.421875 16.5 36.375 
Q 16.5 21.390625 20.328125 13.890625 
Q 24.171875 6.390625 31.78125 6.390625 
Q 39.453125 6.390625 43.28125 13.890625 
Q 47.125 21.390625 47.125 36.375 
Q 47.125 51.421875 43.28125 58.90625 
Q 39.453125 66.40625 31.78125 66.40625 
z
M 31.78125 74.21875 
Q 44.046875 74.21875 50.515625 64.515625 
Q 56.984375 54.828125 56.984375 36.375 
Q 56.984375 17.96875 50.515625 8.265625 
Q 44.046875 -1.421875 31.78125 -1.421875 
Q 19.53125 -1.421875 13.0625 8.265625 
Q 6.59375 17.96875 6.59375 36.375 
Q 6.59375 54.828125 13.0625 64.515625 
Q 19.53125 74.21875 31.78125 74.21875 
z
" id="DejaVuSans-48"/>
      </defs>
      <g transform="translate(67.252948 326.7415)scale(0.16 -0.16)">
       <use xlink:href="#DejaVuSans-48"/>
      </g>
     </g>
    </g>
    <g id="xtick_2">
     <g id="line2d_2">
      <g>
       <use style="stroke:#000000;stroke-width:0.8;" x="123.363582" xlink:href="#m91375d87fd" y="307.584"/>
      </g>
     </g>
     <g id="text_2">
      <!-- 10000 -->
      <defs>
       <path d="M 12.40625 8.296875 
L 28.515625 8.296875 
L 28.515625 63.921875 
L 10.984375 60.40625 
L 10.984375 69.390625 
L 28.421875 72.90625 
L 38.28125 72.90625 
L 38.28125 8.296875 
L 54.390625 8.296875 
L 54.390625 0 
L 12.40625 0 
z
" id="DejaVuSans-49"/>
      </defs>
      <g transform="translate(97.913582 326.7415)scale(0.16 -0.16)">
       <use xlink:href="#DejaVuSans-49"/>
       <use x="63.623047" xlink:href="#DejaVuSans-48"/>
       <use x="127.246094" xlink:href="#DejaVuSans-48"/>
       <use x="190.869141" xlink:href="#DejaVuSans-48"/>
       <use x="254.492188" xlink:href="#DejaVuSans-48"/>
      </g>
     </g>
    </g>
    <g id="xtick_3">
     <g id="line2d_3">
      <g>
       <use style="stroke:#000000;stroke-width:0.8;" x="174.384216" xlink:href="#m91375d87fd" y="307.584"/>
      </g>
     </g>
     <g id="text_3">
      <!-- 20000 -->
      <defs>
       <path d="M 19.1875 8.296875 
L 53.609375 8.296875 
L 53.609375 0 
L 7.328125 0 
L 7.328125 8.296875 
Q 12.9375 14.109375 22.625 23.890625 
Q 32.328125 33.6875 34.8125 36.53125 
Q 39.546875 41.84375 41.421875 45.53125 
Q 43.3125 49.21875 43.3125 52.78125 
Q 43.3125 58.59375 39.234375 62.25 
Q 35.15625 65.921875 28.609375 65.921875 
Q 23.96875 65.921875 18.8125 64.3125 
Q 13.671875 62.703125 7.8125 59.421875 
L 7.8125 69.390625 
Q 13.765625 71.78125 18.9375 73 
Q 24.125 74.21875 28.421875 74.21875 
Q 39.75 74.21875 46.484375 68.546875 
Q 53.21875 62.890625 53.21875 53.421875 
Q 53.21875 48.921875 51.53125 44.890625 
Q 49.859375 40.875 45.40625 35.40625 
Q 44.1875 33.984375 37.640625 27.21875 
Q 31.109375 20.453125 19.1875 8.296875 
z
" id="DejaVuSans-50"/>
      </defs>
      <g transform="translate(148.934216 326.7415)scale(0.16 -0.16)">
       <use xlink:href="#DejaVuSans-50"/>
       <use x="63.623047" xlink:href="#DejaVuSans-48"/>
       <use x="127.246094" xlink:href="#DejaVuSans-48"/>
       <use x="190.869141" xlink:href="#DejaVuSans-48"/>
       <use x="254.492188" xlink:href="#DejaVuSans-48"/>
      </g>
     </g>
    </g>
    <g id="xtick_4">
     <g id="line2d_4">
      <g>
       <use style="stroke:#000000;stroke-width:0.8;" x="225.40485" xlink:href="#m91375d87fd" y="307.584"/>
      </g>
     </g>
     <g id="text_4">
      <!-- 30000 -->
      <defs>
       <path d="M 40.578125 39.3125 
Q 47.65625 37.796875 51.625 33 
Q 55.609375 28.21875 55.609375 21.1875 
Q 55.609375 10.40625 48.1875 4.484375 
Q 40.765625 -1.421875 27.09375 -1.421875 
Q 22.515625 -1.421875 17.65625 -0.515625 
Q 12.796875 0.390625 7.625 2.203125 
L 7.625 11.71875 
Q 11.71875 9.328125 16.59375 8.109375 
Q 21.484375 6.890625 26.8125 6.890625 
Q 36.078125 6.890625 40.9375 10.546875 
Q 45.796875 14.203125 45.796875 21.1875 
Q 45.796875 27.640625 41.28125 31.265625 
Q 36.765625 34.90625 28.71875 34.90625 
L 20.21875 34.90625 
L 20.21875 43.015625 
L 29.109375 43.015625 
Q 36.375 43.015625 40.234375 45.921875 
Q 44.09375 48.828125 44.09375 54.296875 
Q 44.09375 59.90625 40.109375 62.90625 
Q 36.140625 65.921875 28.71875 65.921875 
Q 24.65625 65.921875 20.015625 65.03125 
Q 15.375 64.15625 9.8125 62.3125 
L 9.8125 71.09375 
Q 15.4375 72.65625 20.34375 73.4375 
Q 25.25 74.21875 29.59375 74.21875 
Q 40.828125 74.21875 47.359375 69.109375 
Q 53.90625 64.015625 53.90625 55.328125 
Q 53.90625 49.265625 50.4375 45.09375 
Q 46.96875 40.921875 40.578125 39.3125 
z
" id="DejaVuSans-51"/>
      </defs>
      <g transform="translate(199.95485 326.7415)scale(0.16 -0.16)">
       <use xlink:href="#DejaVuSans-51"/>
       <use x="63.623047" xlink:href="#DejaVuSans-48"/>
       <use x="127.246094" xlink:href="#DejaVuSans-48"/>
       <use x="190.869141" xlink:href="#DejaVuSans-48"/>
       <use x="254.492188" xlink:href="#DejaVuSans-48"/>
      </g>
     </g>
    </g>
    <g id="xtick_5">
     <g id="line2d_5">
      <g>
       <use style="stroke:#000000;stroke-width:0.8;" x="276.425484" xlink:href="#m91375d87fd" y="307.584"/>
      </g>
     </g>
     <g id="text_5">
      <!-- 40000 -->
      <defs>
       <path d="M 37.796875 64.3125 
L 12.890625 25.390625 
L 37.796875 25.390625 
z
M 35.203125 72.90625 
L 47.609375 72.90625 
L 47.609375 25.390625 
L 58.015625 25.390625 
L 58.015625 17.1875 
L 47.609375 17.1875 
L 47.609375 0 
L 37.796875 0 
L 37.796875 17.1875 
L 4.890625 17.1875 
L 4.890625 26.703125 
z
" id="DejaVuSans-52"/>
      </defs>
      <g transform="translate(250.975484 326.7415)scale(0.16 -0.16)">
       <use xlink:href="#DejaVuSans-52"/>
       <use x="63.623047" xlink:href="#DejaVuSans-48"/>
       <use x="127.246094" xlink:href="#DejaVuSans-48"/>
       <use x="190.869141" xlink:href="#DejaVuSans-48"/>
       <use x="254.492188" xlink:href="#DejaVuSans-48"/>
      </g>
     </g>
    </g>
    <g id="xtick_6">
     <g id="line2d_6">
      <g>
       <use style="stroke:#000000;stroke-width:0.8;" x="327.446119" xlink:href="#m91375d87fd" y="307.584"/>
      </g>
     </g>
     <g id="text_6">
      <!-- 50000 -->
      <defs>
       <path d="M 10.796875 72.90625 
L 49.515625 72.90625 
L 49.515625 64.59375 
L 19.828125 64.59375 
L 19.828125 46.734375 
Q 21.96875 47.46875 24.109375 47.828125 
Q 26.265625 48.1875 28.421875 48.1875 
Q 40.625 48.1875 47.75 41.5 
Q 54.890625 34.8125 54.890625 23.390625 
Q 54.890625 11.625 47.5625 5.09375 
Q 40.234375 -1.421875 26.90625 -1.421875 
Q 22.3125 -1.421875 17.546875 -0.640625 
Q 12.796875 0.140625 7.71875 1.703125 
L 7.71875 11.625 
Q 12.109375 9.234375 16.796875 8.0625 
Q 21.484375 6.890625 26.703125 6.890625 
Q 35.15625 6.890625 40.078125 11.328125 
Q 45.015625 15.765625 45.015625 23.390625 
Q 45.015625 31 40.078125 35.4375 
Q 35.15625 39.890625 26.703125 39.890625 
Q 22.75 39.890625 18.8125 39.015625 
Q 14.890625 38.140625 10.796875 36.28125 
z
" id="DejaVuSans-53"/>
      </defs>
      <g transform="translate(301.996119 326.7415)scale(0.16 -0.16)">
       <use xlink:href="#DejaVuSans-53"/>
       <use x="63.623047" xlink:href="#DejaVuSans-48"/>
       <use x="127.246094" xlink:href="#DejaVuSans-48"/>
       <use x="190.869141" xlink:href="#DejaVuSans-48"/>
       <use x="254.492188" xlink:href="#DejaVuSans-48"/>
      </g>
     </g>
    </g>
    <g id="xtick_7">
     <g id="line2d_7">
      <g>
       <use style="stroke:#000000;stroke-width:0.8;" x="378.466753" xlink:href="#m91375d87fd" y="307.584"/>
      </g>
     </g>
     <g id="text_7">
      <!-- 60000 -->
      <defs>
       <path d="M 33.015625 40.375 
Q 26.375 40.375 22.484375 35.828125 
Q 18.609375 31.296875 18.609375 23.390625 
Q 18.609375 15.53125 22.484375 10.953125 
Q 26.375 6.390625 33.015625 6.390625 
Q 39.65625 6.390625 43.53125 10.953125 
Q 47.40625 15.53125 47.40625 23.390625 
Q 47.40625 31.296875 43.53125 35.828125 
Q 39.65625 40.375 33.015625 40.375 
z
M 52.59375 71.296875 
L 52.59375 62.3125 
Q 48.875 64.0625 45.09375 64.984375 
Q 41.3125 65.921875 37.59375 65.921875 
Q 27.828125 65.921875 22.671875 59.328125 
Q 17.53125 52.734375 16.796875 39.40625 
Q 19.671875 43.65625 24.015625 45.921875 
Q 28.375 48.1875 33.59375 48.1875 
Q 44.578125 48.1875 50.953125 41.515625 
Q 57.328125 34.859375 57.328125 23.390625 
Q 57.328125 12.15625 50.6875 5.359375 
Q 44.046875 -1.421875 33.015625 -1.421875 
Q 20.359375 -1.421875 13.671875 8.265625 
Q 6.984375 17.96875 6.984375 36.375 
Q 6.984375 53.65625 15.1875 63.9375 
Q 23.390625 74.21875 37.203125 74.21875 
Q 40.921875 74.21875 44.703125 73.484375 
Q 48.484375 72.75 52.59375 71.296875 
z
" id="DejaVuSans-54"/>
      </defs>
      <g transform="translate(353.016753 326.7415)scale(0.16 -0.16)">
       <use xlink:href="#DejaVuSans-54"/>
       <use x="63.623047" xlink:href="#DejaVuSans-48"/>
       <use x="127.246094" xlink:href="#DejaVuSans-48"/>
       <use x="190.869141" xlink:href="#DejaVuSans-48"/>
       <use x="254.492188" xlink:href="#DejaVuSans-48"/>
      </g>
     </g>
    </g>
    <g id="text_8">
     <!-- gdp_per_capita -->
     <defs>
      <path d="M 45.40625 27.984375 
Q 45.40625 37.75 41.375 43.109375 
Q 37.359375 48.484375 30.078125 48.484375 
Q 22.859375 48.484375 18.828125 43.109375 
Q 14.796875 37.75 14.796875 27.984375 
Q 14.796875 18.265625 18.828125 12.890625 
Q 22.859375 7.515625 30.078125 7.515625 
Q 37.359375 7.515625 41.375 12.890625 
Q 45.40625 18.265625 45.40625 27.984375 
z
M 54.390625 6.78125 
Q 54.390625 -7.171875 48.1875 -13.984375 
Q 42 -20.796875 29.203125 -20.796875 
Q 24.46875 -20.796875 20.265625 -20.09375 
Q 16.0625 -19.390625 12.109375 -17.921875 
L 12.109375 -9.1875 
Q 16.0625 -11.328125 19.921875 -12.34375 
Q 23.78125 -13.375 27.78125 -13.375 
Q 36.625 -13.375 41.015625 -8.765625 
Q 45.40625 -4.15625 45.40625 5.171875 
L 45.40625 9.625 
Q 42.625 4.78125 38.28125 2.390625 
Q 33.9375 0 27.875 0 
Q 17.828125 0 11.671875 7.65625 
Q 5.515625 15.328125 5.515625 27.984375 
Q 5.515625 40.671875 11.671875 48.328125 
Q 17.828125 56 27.875 56 
Q 33.9375 56 38.28125 53.609375 
Q 42.625 51.21875 45.40625 46.390625 
L 45.40625 54.6875 
L 54.390625 54.6875 
z
" id="DejaVuSans-103"/>
      <path d="M 45.40625 46.390625 
L 45.40625 75.984375 
L 54.390625 75.984375 
L 54.390625 0 
L 45.40625 0 
L 45.40625 8.203125 
Q 42.578125 3.328125 38.25 0.953125 
Q 33.9375 -1.421875 27.875 -1.421875 
Q 17.96875 -1.421875 11.734375 6.484375 
Q 5.515625 14.40625 5.515625 27.296875 
Q 5.515625 40.1875 11.734375 48.09375 
Q 17.96875 56 27.875 56 
Q 33.9375 56 38.25 53.625 
Q 42.578125 51.265625 45.40625 46.390625 
z
M 14.796875 27.296875 
Q 14.796875 17.390625 18.875 11.75 
Q 22.953125 6.109375 30.078125 6.109375 
Q 37.203125 6.109375 41.296875 11.75 
Q 45.40625 17.390625 45.40625 27.296875 
Q 45.40625 37.203125 41.296875 42.84375 
Q 37.203125 48.484375 30.078125 48.484375 
Q 22.953125 48.484375 18.875 42.84375 
Q 14.796875 37.203125 14.796875 27.296875 
z
" id="DejaVuSans-100"/>
      <path d="M 18.109375 8.203125 
L 18.109375 -20.796875 
L 9.078125 -20.796875 
L 9.078125 54.6875 
L 18.109375 54.6875 
L 18.109375 46.390625 
Q 20.953125 51.265625 25.265625 53.625 
Q 29.59375 56 35.59375 56 
Q 45.5625 56 51.78125 48.09375 
Q 58.015625 40.1875 58.015625 27.296875 
Q 58.015625 14.40625 51.78125 6.484375 
Q 45.5625 -1.421875 35.59375 -1.421875 
Q 29.59375 -1.421875 25.265625 0.953125 
Q 20.953125 3.328125 18.109375 8.203125 
z
M 48.6875 27.296875 
Q 48.6875 37.203125 44.609375 42.84375 
Q 40.53125 48.484375 33.40625 48.484375 
Q 26.265625 48.484375 22.1875 42.84375 
Q 18.109375 37.203125 18.109375 27.296875 
Q 18.109375 17.390625 22.1875 11.75 
Q 26.265625 6.109375 33.40625 6.109375 
Q 40.53125 6.109375 44.609375 11.75 
Q 48.6875 17.390625 48.6875 27.296875 
z
" id="DejaVuSans-112"/>
      <path d="M 50.984375 -16.609375 
L 50.984375 -23.578125 
L -0.984375 -23.578125 
L -0.984375 -16.609375 
z
" id="DejaVuSans-95"/>
      <path d="M 56.203125 29.59375 
L 56.203125 25.203125 
L 14.890625 25.203125 
Q 15.484375 15.921875 20.484375 11.0625 
Q 25.484375 6.203125 34.421875 6.203125 
Q 39.59375 6.203125 44.453125 7.46875 
Q 49.3125 8.734375 54.109375 11.28125 
L 54.109375 2.78125 
Q 49.265625 0.734375 44.1875 -0.34375 
Q 39.109375 -1.421875 33.890625 -1.421875 
Q 20.796875 -1.421875 13.15625 6.1875 
Q 5.515625 13.8125 5.515625 26.8125 
Q 5.515625 40.234375 12.765625 48.109375 
Q 20.015625 56 32.328125 56 
Q 43.359375 56 49.78125 48.890625 
Q 56.203125 41.796875 56.203125 29.59375 
z
M 47.21875 32.234375 
Q 47.125 39.59375 43.09375 43.984375 
Q 39.0625 48.390625 32.421875 48.390625 
Q 24.90625 48.390625 20.390625 44.140625 
Q 15.875 39.890625 15.1875 32.171875 
z
" id="DejaVuSans-101"/>
      <path d="M 41.109375 46.296875 
Q 39.59375 47.171875 37.8125 47.578125 
Q 36.03125 48 33.890625 48 
Q 26.265625 48 22.1875 43.046875 
Q 18.109375 38.09375 18.109375 28.8125 
L 18.109375 0 
L 9.078125 0 
L 9.078125 54.6875 
L 18.109375 54.6875 
L 18.109375 46.1875 
Q 20.953125 51.171875 25.484375 53.578125 
Q 30.03125 56 36.53125 56 
Q 37.453125 56 38.578125 55.875 
Q 39.703125 55.765625 41.0625 55.515625 
z
" id="DejaVuSans-114"/>
      <path d="M 48.78125 52.59375 
L 48.78125 44.1875 
Q 44.96875 46.296875 41.140625 47.34375 
Q 37.3125 48.390625 33.40625 48.390625 
Q 24.65625 48.390625 19.8125 42.84375 
Q 14.984375 37.3125 14.984375 27.296875 
Q 14.984375 17.28125 19.8125 11.734375 
Q 24.65625 6.203125 33.40625 6.203125 
Q 37.3125 6.203125 41.140625 7.25 
Q 44.96875 8.296875 48.78125 10.40625 
L 48.78125 2.09375 
Q 45.015625 0.34375 40.984375 -0.53125 
Q 36.96875 -1.421875 32.421875 -1.421875 
Q 20.0625 -1.421875 12.78125 6.34375 
Q 5.515625 14.109375 5.515625 27.296875 
Q 5.515625 40.671875 12.859375 48.328125 
Q 20.21875 56 33.015625 56 
Q 37.15625 56 41.109375 55.140625 
Q 45.0625 54.296875 48.78125 52.59375 
z
" id="DejaVuSans-99"/>
      <path d="M 34.28125 27.484375 
Q 23.390625 27.484375 19.1875 25 
Q 14.984375 22.515625 14.984375 16.5 
Q 14.984375 11.71875 18.140625 8.90625 
Q 21.296875 6.109375 26.703125 6.109375 
Q 34.1875 6.109375 38.703125 11.40625 
Q 43.21875 16.703125 43.21875 25.484375 
L 43.21875 27.484375 
z
M 52.203125 31.203125 
L 52.203125 0 
L 43.21875 0 
L 43.21875 8.296875 
Q 40.140625 3.328125 35.546875 0.953125 
Q 30.953125 -1.421875 24.3125 -1.421875 
Q 15.921875 -1.421875 10.953125 3.296875 
Q 6 8.015625 6 15.921875 
Q 6 25.140625 12.171875 29.828125 
Q 18.359375 34.515625 30.609375 34.515625 
L 43.21875 34.515625 
L 43.21875 35.40625 
Q 43.21875 41.609375 39.140625 45 
Q 35.0625 48.390625 27.6875 48.390625 
Q 23 48.390625 18.546875 47.265625 
Q 14.109375 46.140625 10.015625 43.890625 
L 10.015625 52.203125 
Q 14.9375 54.109375 19.578125 55.046875 
Q 24.21875 56 28.609375 56 
Q 40.484375 56 46.34375 49.84375 
Q 52.203125 43.703125 52.203125 31.203125 
z
" id="DejaVuSans-97"/>
      <path d="M 9.421875 54.6875 
L 18.40625 54.6875 
L 18.40625 0 
L 9.421875 0 
z
M 9.421875 75.984375 
L 18.40625 75.984375 
L 18.40625 64.59375 
L 9.421875 64.59375 
z
" id="DejaVuSans-105"/>
      <path d="M 18.3125 70.21875 
L 18.3125 54.6875 
L 36.8125 54.6875 
L 36.8125 47.703125 
L 18.3125 47.703125 
L 18.3125 18.015625 
Q 18.3125 11.328125 20.140625 9.421875 
Q 21.96875 7.515625 27.59375 7.515625 
L 36.8125 7.515625 
L 36.8125 0 
L 27.59375 0 
Q 17.1875 0 13.234375 3.875 
Q 9.28125 7.765625 9.28125 18.015625 
L 9.28125 47.703125 
L 2.6875 47.703125 
L 2.6875 54.6875 
L 9.28125 54.6875 
L 9.28125 70.21875 
z
" id="DejaVuSans-116"/>
     </defs>
     <g transform="translate(159.700625 349.265875)scale(0.2 -0.2)">
      <use xlink:href="#DejaVuSans-103"/>
      <use x="63.476562" xlink:href="#DejaVuSans-100"/>
      <use x="126.953125" xlink:href="#DejaVuSans-112"/>
      <use x="190.429688" xlink:href="#DejaVuSans-95"/>
      <use x="240.429688" xlink:href="#DejaVuSans-112"/>
      <use x="303.90625" xlink:href="#DejaVuSans-101"/>
      <use x="365.429688" xlink:href="#DejaVuSans-114"/>
      <use x="406.542969" xlink:href="#DejaVuSans-95"/>
      <use x="456.542969" xlink:href="#DejaVuSans-99"/>
      <use x="511.523438" xlink:href="#DejaVuSans-97"/>
      <use x="572.802734" xlink:href="#DejaVuSans-112"/>
      <use x="636.279297" xlink:href="#DejaVuSans-105"/>
      <use x="664.0625" xlink:href="#DejaVuSans-116"/>
      <use x="703.271484" xlink:href="#DejaVuSans-97"/>
     </g>
    </g>
   </g>
   <g id="matplotlib.axis_2">
    <g id="ytick_1">
     <g id="line2d_8">
      <defs>
       <path d="M 0 0 
L -3.5 0 
" id="mecf9a23e54" style="stroke:#000000;stroke-width:0.8;"/>
      </defs>
      <g>
       <use style="stroke:#000000;stroke-width:0.8;" x="57.6" xlink:href="#mecf9a23e54" y="284.952456"/>
      </g>
     </g>
     <g id="text_9">
      <!-- 40 -->
      <g transform="translate(30.24 291.031206)scale(0.16 -0.16)">
       <use xlink:href="#DejaVuSans-52"/>
       <use x="63.623047" xlink:href="#DejaVuSans-48"/>
      </g>
     </g>
    </g>
    <g id="ytick_2">
     <g id="line2d_9">
      <g>
       <use style="stroke:#000000;stroke-width:0.8;" x="57.6" xlink:href="#mecf9a23e54" y="229.003095"/>
      </g>
     </g>
     <g id="text_10">
      <!-- 50 -->
      <g transform="translate(30.24 235.081845)scale(0.16 -0.16)">
       <use xlink:href="#DejaVuSans-53"/>
       <use x="63.623047" xlink:href="#DejaVuSans-48"/>
      </g>
     </g>
    </g>
    <g id="ytick_3">
     <g id="line2d_10">
      <g>
       <use style="stroke:#000000;stroke-width:0.8;" x="57.6" xlink:href="#mecf9a23e54" y="173.053734"/>
      </g>
     </g>
     <g id="text_11">
      <!-- 60 -->
      <g transform="translate(30.24 179.132484)scale(0.16 -0.16)">
       <use xlink:href="#DejaVuSans-54"/>
       <use x="63.623047" xlink:href="#DejaVuSans-48"/>
      </g>
     </g>
    </g>
    <g id="ytick_4">
     <g id="line2d_11">
      <g>
       <use style="stroke:#000000;stroke-width:0.8;" x="57.6" xlink:href="#mecf9a23e54" y="117.104374"/>
      </g>
     </g>
     <g id="text_12">
      <!-- 70 -->
      <defs>
       <path d="M 8.203125 72.90625 
L 55.078125 72.90625 
L 55.078125 68.703125 
L 28.609375 0 
L 18.3125 0 
L 43.21875 64.59375 
L 8.203125 64.59375 
z
" id="DejaVuSans-55"/>
      </defs>
      <g transform="translate(30.24 123.183124)scale(0.16 -0.16)">
       <use xlink:href="#DejaVuSans-55"/>
       <use x="63.623047" xlink:href="#DejaVuSans-48"/>
      </g>
     </g>
    </g>
    <g id="ytick_5">
     <g id="line2d_12">
      <g>
       <use style="stroke:#000000;stroke-width:0.8;" x="57.6" xlink:href="#mecf9a23e54" y="61.155013"/>
      </g>
     </g>
     <g id="text_13">
      <!-- 80 -->
      <defs>
       <path d="M 31.78125 34.625 
Q 24.75 34.625 20.71875 30.859375 
Q 16.703125 27.09375 16.703125 20.515625 
Q 16.703125 13.921875 20.71875 10.15625 
Q 24.75 6.390625 31.78125 6.390625 
Q 38.8125 6.390625 42.859375 10.171875 
Q 46.921875 13.96875 46.921875 20.515625 
Q 46.921875 27.09375 42.890625 30.859375 
Q 38.875 34.625 31.78125 34.625 
z
M 21.921875 38.8125 
Q 15.578125 40.375 12.03125 44.71875 
Q 8.5 49.078125 8.5 55.328125 
Q 8.5 64.0625 14.71875 69.140625 
Q 20.953125 74.21875 31.78125 74.21875 
Q 42.671875 74.21875 48.875 69.140625 
Q 55.078125 64.0625 55.078125 55.328125 
Q 55.078125 49.078125 51.53125 44.71875 
Q 48 40.375 41.703125 38.8125 
Q 48.828125 37.15625 52.796875 32.3125 
Q 56.78125 27.484375 56.78125 20.515625 
Q 56.78125 9.90625 50.3125 4.234375 
Q 43.84375 -1.421875 31.78125 -1.421875 
Q 19.734375 -1.421875 13.25 4.234375 
Q 6.78125 9.90625 6.78125 20.515625 
Q 6.78125 27.484375 10.78125 32.3125 
Q 14.796875 37.15625 21.921875 38.8125 
z
M 18.3125 54.390625 
Q 18.3125 48.734375 21.84375 45.5625 
Q 25.390625 42.390625 31.78125 42.390625 
Q 38.140625 42.390625 41.71875 45.5625 
Q 45.3125 48.734375 45.3125 54.390625 
Q 45.3125 60.0625 41.71875 63.234375 
Q 38.140625 66.40625 31.78125 66.40625 
Q 25.390625 66.40625 21.84375 63.234375 
Q 18.3125 60.0625 18.3125 54.390625 
z
" id="DejaVuSans-56"/>
      </defs>
      <g transform="translate(30.24 67.233763)scale(0.16 -0.16)">
       <use xlink:href="#DejaVuSans-56"/>
       <use x="63.623047" xlink:href="#DejaVuSans-48"/>
      </g>
     </g>
    </g>
    <g id="text_14">
     <!-- life_expectancy -->
     <defs>
      <path d="M 9.421875 75.984375 
L 18.40625 75.984375 
L 18.40625 0 
L 9.421875 0 
z
" id="DejaVuSans-108"/>
      <path d="M 37.109375 75.984375 
L 37.109375 68.5 
L 28.515625 68.5 
Q 23.6875 68.5 21.796875 66.546875 
Q 19.921875 64.59375 19.921875 59.515625 
L 19.921875 54.6875 
L 34.71875 54.6875 
L 34.71875 47.703125 
L 19.921875 47.703125 
L 19.921875 0 
L 10.890625 0 
L 10.890625 47.703125 
L 2.296875 47.703125 
L 2.296875 54.6875 
L 10.890625 54.6875 
L 10.890625 58.5 
Q 10.890625 67.625 15.140625 71.796875 
Q 19.390625 75.984375 28.609375 75.984375 
z
" id="DejaVuSans-102"/>
      <path d="M 54.890625 54.6875 
L 35.109375 28.078125 
L 55.90625 0 
L 45.3125 0 
L 29.390625 21.484375 
L 13.484375 0 
L 2.875 0 
L 24.125 28.609375 
L 4.6875 54.6875 
L 15.28125 54.6875 
L 29.78125 35.203125 
L 44.28125 54.6875 
z
" id="DejaVuSans-120"/>
      <path d="M 54.890625 33.015625 
L 54.890625 0 
L 45.90625 0 
L 45.90625 32.71875 
Q 45.90625 40.484375 42.875 44.328125 
Q 39.84375 48.1875 33.796875 48.1875 
Q 26.515625 48.1875 22.3125 43.546875 
Q 18.109375 38.921875 18.109375 30.90625 
L 18.109375 0 
L 9.078125 0 
L 9.078125 54.6875 
L 18.109375 54.6875 
L 18.109375 46.1875 
Q 21.34375 51.125 25.703125 53.5625 
Q 30.078125 56 35.796875 56 
Q 45.21875 56 50.046875 50.171875 
Q 54.890625 44.34375 54.890625 33.015625 
z
" id="DejaVuSans-110"/>
      <path d="M 32.171875 -5.078125 
Q 28.375 -14.84375 24.75 -17.8125 
Q 21.140625 -20.796875 15.09375 -20.796875 
L 7.90625 -20.796875 
L 7.90625 -13.28125 
L 13.1875 -13.28125 
Q 16.890625 -13.28125 18.9375 -11.515625 
Q 21 -9.765625 23.484375 -3.21875 
L 25.09375 0.875 
L 2.984375 54.6875 
L 12.5 54.6875 
L 29.59375 11.921875 
L 46.6875 54.6875 
L 56.203125 54.6875 
z
" id="DejaVuSans-121"/>
     </defs>
     <g transform="translate(21.524375 252.631125)rotate(-90)scale(0.2 -0.2)">
      <use xlink:href="#DejaVuSans-108"/>
      <use x="27.783203" xlink:href="#DejaVuSans-105"/>
      <use x="55.566406" xlink:href="#DejaVuSans-102"/>
      <use x="90.771484" xlink:href="#DejaVuSans-101"/>
      <use x="152.294922" xlink:href="#DejaVuSans-95"/>
      <use x="202.294922" xlink:href="#DejaVuSans-101"/>
      <use x="263.802734" xlink:href="#DejaVuSans-120"/>
      <use x="322.982422" xlink:href="#DejaVuSans-112"/>
      <use x="386.458984" xlink:href="#DejaVuSans-101"/>
      <use x="447.982422" xlink:href="#DejaVuSans-99"/>
      <use x="502.962891" xlink:href="#DejaVuSans-116"/>
      <use x="542.171875" xlink:href="#DejaVuSans-97"/>
      <use x="603.451172" xlink:href="#DejaVuSans-110"/>
      <use x="666.830078" xlink:href="#DejaVuSans-99"/>
      <use x="721.810547" xlink:href="#DejaVuSans-121"/>
     </g>
    </g>
   </g>
   <g id="patch_3">
    <path d="M 57.6 307.584 
L 57.6 41.472 
" style="fill:none;stroke:#000000;stroke-linecap:square;stroke-linejoin:miter;stroke-width:0.8;"/>
   </g>
   <g id="patch_4">
    <path d="M 414.72 307.584 
L 414.72 41.472 
" style="fill:none;stroke:#000000;stroke-linecap:square;stroke-linejoin:miter;stroke-width:0.8;"/>
   </g>
   <g id="patch_5">
    <path d="M 57.6 307.584 
L 414.72 307.584 
" style="fill:none;stroke:#000000;stroke-linecap:square;stroke-linejoin:miter;stroke-width:0.8;"/>
   </g>
   <g id="patch_6">
    <path d="M 57.6 41.472 
L 414.72 41.472 
" style="fill:none;stroke:#000000;stroke-linecap:square;stroke-linejoin:miter;stroke-width:0.8;"/>
   </g>
   <g id="text_15">
    <!-- Lebenserwartung und Wohlstand -->
    <defs>
     <path d="M 9.8125 72.90625 
L 19.671875 72.90625 
L 19.671875 8.296875 
L 55.171875 8.296875 
L 55.171875 0 
L 9.8125 0 
z
" id="DejaVuSans-76"/>
     <path d="M 48.6875 27.296875 
Q 48.6875 37.203125 44.609375 42.84375 
Q 40.53125 48.484375 33.40625 48.484375 
Q 26.265625 48.484375 22.1875 42.84375 
Q 18.109375 37.203125 18.109375 27.296875 
Q 18.109375 17.390625 22.1875 11.75 
Q 26.265625 6.109375 33.40625 6.109375 
Q 40.53125 6.109375 44.609375 11.75 
Q 48.6875 17.390625 48.6875 27.296875 
z
M 18.109375 46.390625 
Q 20.953125 51.265625 25.265625 53.625 
Q 29.59375 56 35.59375 56 
Q 45.5625 56 51.78125 48.09375 
Q 58.015625 40.1875 58.015625 27.296875 
Q 58.015625 14.40625 51.78125 6.484375 
Q 45.5625 -1.421875 35.59375 -1.421875 
Q 29.59375 -1.421875 25.265625 0.953125 
Q 20.953125 3.328125 18.109375 8.203125 
L 18.109375 0 
L 9.078125 0 
L 9.078125 75.984375 
L 18.109375 75.984375 
z
" id="DejaVuSans-98"/>
     <path d="M 44.28125 53.078125 
L 44.28125 44.578125 
Q 40.484375 46.53125 36.375 47.5 
Q 32.28125 48.484375 27.875 48.484375 
Q 21.1875 48.484375 17.84375 46.4375 
Q 14.5 44.390625 14.5 40.28125 
Q 14.5 37.15625 16.890625 35.375 
Q 19.28125 33.59375 26.515625 31.984375 
L 29.59375 31.296875 
Q 39.15625 29.25 43.1875 25.515625 
Q 47.21875 21.78125 47.21875 15.09375 
Q 47.21875 7.46875 41.1875 3.015625 
Q 35.15625 -1.421875 24.609375 -1.421875 
Q 20.21875 -1.421875 15.453125 -0.5625 
Q 10.6875 0.296875 5.421875 2 
L 5.421875 11.28125 
Q 10.40625 8.6875 15.234375 7.390625 
Q 20.0625 6.109375 24.8125 6.109375 
Q 31.15625 6.109375 34.5625 8.28125 
Q 37.984375 10.453125 37.984375 14.40625 
Q 37.984375 18.0625 35.515625 20.015625 
Q 33.0625 21.96875 24.703125 23.78125 
L 21.578125 24.515625 
Q 13.234375 26.265625 9.515625 29.90625 
Q 5.8125 33.546875 5.8125 39.890625 
Q 5.8125 47.609375 11.28125 51.796875 
Q 16.75 56 26.8125 56 
Q 31.78125 56 36.171875 55.265625 
Q 40.578125 54.546875 44.28125 53.078125 
z
" id="DejaVuSans-115"/>
     <path d="M 4.203125 54.6875 
L 13.1875 54.6875 
L 24.421875 12.015625 
L 35.59375 54.6875 
L 46.1875 54.6875 
L 57.421875 12.015625 
L 68.609375 54.6875 
L 77.59375 54.6875 
L 63.28125 0 
L 52.6875 0 
L 40.921875 44.828125 
L 29.109375 0 
L 18.5 0 
z
" id="DejaVuSans-119"/>
     <path d="M 8.5 21.578125 
L 8.5 54.6875 
L 17.484375 54.6875 
L 17.484375 21.921875 
Q 17.484375 14.15625 20.5 10.265625 
Q 23.53125 6.390625 29.59375 6.390625 
Q 36.859375 6.390625 41.078125 11.03125 
Q 45.3125 15.671875 45.3125 23.6875 
L 45.3125 54.6875 
L 54.296875 54.6875 
L 54.296875 0 
L 45.3125 0 
L 45.3125 8.40625 
Q 42.046875 3.421875 37.71875 1 
Q 33.40625 -1.421875 27.6875 -1.421875 
Q 18.265625 -1.421875 13.375 4.4375 
Q 8.5 10.296875 8.5 21.578125 
z
M 31.109375 56 
z
" id="DejaVuSans-117"/>
     <path id="DejaVuSans-32"/>
     <path d="M 3.328125 72.90625 
L 13.28125 72.90625 
L 28.609375 11.28125 
L 43.890625 72.90625 
L 54.984375 72.90625 
L 70.3125 11.28125 
L 85.59375 72.90625 
L 95.609375 72.90625 
L 77.296875 0 
L 64.890625 0 
L 49.515625 63.28125 
L 33.984375 0 
L 21.578125 0 
z
" id="DejaVuSans-87"/>
     <path d="M 30.609375 48.390625 
Q 23.390625 48.390625 19.1875 42.75 
Q 14.984375 37.109375 14.984375 27.296875 
Q 14.984375 17.484375 19.15625 11.84375 
Q 23.34375 6.203125 30.609375 6.203125 
Q 37.796875 6.203125 41.984375 11.859375 
Q 46.1875 17.53125 46.1875 27.296875 
Q 46.1875 37.015625 41.984375 42.703125 
Q 37.796875 48.390625 30.609375 48.390625 
z
M 30.609375 56 
Q 42.328125 56 49.015625 48.375 
Q 55.71875 40.765625 55.71875 27.296875 
Q 55.71875 13.875 49.015625 6.21875 
Q 42.328125 -1.421875 30.609375 -1.421875 
Q 18.84375 -1.421875 12.171875 6.21875 
Q 5.515625 13.875 5.515625 27.296875 
Q 5.515625 40.765625 12.171875 48.375 
Q 18.84375 56 30.609375 56 
z
" id="DejaVuSans-111"/>
     <path d="M 54.890625 33.015625 
L 54.890625 0 
L 45.90625 0 
L 45.90625 32.71875 
Q 45.90625 40.484375 42.875 44.328125 
Q 39.84375 48.1875 33.796875 48.1875 
Q 26.515625 48.1875 22.3125 43.546875 
Q 18.109375 38.921875 18.109375 30.90625 
L 18.109375 0 
L 9.078125 0 
L 9.078125 75.984375 
L 18.109375 75.984375 
L 18.109375 46.1875 
Q 21.34375 51.125 25.703125 53.5625 
Q 30.078125 56 35.796875 56 
Q 45.21875 56 50.046875 50.171875 
Q 54.890625 44.34375 54.890625 33.015625 
z
" id="DejaVuSans-104"/>
    </defs>
    <g transform="translate(37.15875 35.472)scale(0.24 -0.24)">
     <use xlink:href="#DejaVuSans-76"/>
     <use x="55.697266" xlink:href="#DejaVuSans-101"/>
     <use x="117.220703" xlink:href="#DejaVuSans-98"/>
     <use x="180.697266" xlink:href="#DejaVuSans-101"/>
     <use x="242.220703" xlink:href="#DejaVuSans-110"/>
     <use x="305.599609" xlink:href="#DejaVuSans-115"/>
     <use x="357.699219" xlink:href="#DejaVuSans-101"/>
     <use x="419.222656" xlink:href="#DejaVuSans-114"/>
     <use x="460.335938" xlink:href="#DejaVuSans-119"/>
     <use x="542.123047" xlink:href="#DejaVuSans-97"/>
     <use x="603.402344" xlink:href="#DejaVuSans-114"/>
     <use x="644.515625" xlink:href="#DejaVuSans-116"/>
     <use x="683.724609" xlink:href="#DejaVuSans-117"/>
     <use x="747.103516" xlink:href="#DejaVuSans-110"/>
     <use x="810.482422" xlink:href="#DejaVuSans-103"/>
     <use x="873.958984" xlink:href="#DejaVuSans-32"/>
     <use x="905.746094" xlink:href="#DejaVuSans-117"/>
     <use x="969.125" xlink:href="#DejaVuSans-110"/>
     <use x="1032.503906" xlink:href="#DejaVuSans-100"/>
     <use x="1095.980469" xlink:href="#DejaVuSans-32"/>
     <use x="1127.767578" xlink:href="#DejaVuSans-87"/>
     <use x="1226.566406" xlink:href="#DejaVuSans-111"/>
     <use x="1287.748047" xlink:href="#DejaVuSans-104"/>
     <use x="1351.126953" xlink:href="#DejaVuSans-108"/>
     <use x="1378.910156" xlink:href="#DejaVuSans-115"/>
     <use x="1431.009766" xlink:href="#DejaVuSans-116"/>
     <use x="1470.21875" xlink:href="#DejaVuSans-97"/>
     <use x="1531.498047" xlink:href="#DejaVuSans-110"/>
     <use x="1594.876953" xlink:href="#DejaVuSans-100"/>
    </g>
   </g>
  </g>
 </g>
 <defs>
  <clipPath id="pe82f7b6835">
   <rect height="266.112" width="357.12" x="57.6" y="41.472"/>
  </clipPath>
 </defs>
</svg>
